<?xml version="1.0" encoding="UTF-8" standalone="no"?>
<!DOCTYPE svg PUBLIC "-//W3C//DTD SVG 1.1//EN" "http://www.w3.org/Graphics/SVG/1.1/DTD/svg11.dtd">
<svg width="100%" height="100%" viewBox="0 0 192 192" version="1.1" xmlns="http://www.w3.org/2000/svg" xmlns:xlink="http://www.w3.org/1999/xlink" xml:space="preserve" xmlns:serif="http://www.serif.com/" style="fill-rule:evenodd;clip-rule:evenodd;stroke-linejoin:round;stroke-miterlimit:2;">
    <g transform="matrix(1,0,0,1,-866.331,-588.329)">
        <g id="dyslexia" transform="matrix(0.856047,0,0,1.00524,1129.75,376.528)">
            <rect x="-307.718" y="210.698" width="224.287" height="191" style="fill:none;"/>
            <clipPath id="_clip1">
                <rect x="-307.718" y="210.698" width="224.287" height="191"/>
            </clipPath>
            <g clip-path="url(#_clip1)">
                <g transform="matrix(1.16816,0,0,0.994792,-307.133,210.896)">
                    <circle cx="96" cy="96" r="96" style="fill:white;"/>
                </g>
                <g transform="matrix(1.06707,0,0,0.908704,-298.013,218.963)">
                    <path d="M96,-8C38.601,-8 -8,38.601 -8,96C-8,153.399 38.601,200 96,200C153.399,200 200,153.399 200,96C200,38.601 153.399,-8 96,-8ZM96,8C144.569,8 184,47.431 184,96C184,144.569 144.569,184 96,184C47.431,184 8,144.569 8,96C8,47.431 47.431,8 96,8Z" style="fill:rgb(39,64,122);"/>
                </g>
                <g transform="matrix(1.7721,0,0,1.5091,-394.096,-687.642)">
                    <g transform="matrix(148.789,0,0,148.789,59.5645,715.349)">
                        <path d="M0.523,-0.107C0.514,-0.136 0.504,-0.169 0.492,-0.204C0.48,-0.239 0.467,-0.275 0.452,-0.312C0.431,-0.307 0.406,-0.302 0.375,-0.297C0.344,-0.292 0.312,-0.288 0.278,-0.284C0.243,-0.281 0.211,-0.28 0.18,-0.28C0.141,-0.28 0.11,-0.283 0.086,-0.29C0.061,-0.296 0.049,-0.307 0.049,-0.323C0.049,-0.345 0.054,-0.37 0.064,-0.399C0.073,-0.427 0.086,-0.456 0.101,-0.485C0.116,-0.514 0.133,-0.542 0.15,-0.569C0.167,-0.596 0.182,-0.619 0.197,-0.639C0.211,-0.658 0.222,-0.672 0.229,-0.679C0.242,-0.692 0.253,-0.702 0.263,-0.709C0.273,-0.716 0.286,-0.719 0.303,-0.719C0.316,-0.719 0.327,-0.715 0.337,-0.706C0.346,-0.697 0.355,-0.687 0.363,-0.676C0.377,-0.657 0.393,-0.632 0.411,-0.6C0.429,-0.567 0.448,-0.531 0.467,-0.491C0.486,-0.45 0.504,-0.408 0.522,-0.366C0.54,-0.323 0.556,-0.281 0.571,-0.241C0.586,-0.2 0.598,-0.164 0.607,-0.132L0.523,-0.107ZM0.203,-0.359C0.232,-0.359 0.267,-0.362 0.306,-0.367C0.345,-0.372 0.384,-0.377 0.421,-0.384C0.4,-0.433 0.378,-0.48 0.355,-0.523C0.332,-0.566 0.311,-0.6 0.292,-0.625C0.269,-0.595 0.247,-0.563 0.227,-0.53C0.206,-0.497 0.189,-0.466 0.176,-0.437C0.163,-0.407 0.154,-0.385 0.151,-0.368L0.153,-0.363C0.16,-0.362 0.167,-0.361 0.175,-0.36C0.184,-0.359 0.193,-0.359 0.203,-0.359Z" style="fill:rgb(39,64,122);fill-rule:nonzero;"/>
                    </g>
                </g>
            </g>
        </g>
    </g>
</svg>
