<?xml version="1.0" encoding="utf-8"?>
<!-- Generator: Adobe Illustrator 24.1.1, SVG Export Plug-In . SVG Version: 6.00 Build 0)  -->
<svg version="1.1" id="Layer_1" xmlns="http://www.w3.org/2000/svg" xmlns:xlink="http://www.w3.org/1999/xlink" x="0px" y="0px"
	 viewBox="0 0 512 512" style="enable-background:new 0 0 512 512;" xml:space="preserve">
<g>
	<path d="M46,167.3l61.8-61.8l61.8,61.8c10.5,10.5,27.6,10.5,38.1,0c10.5-10.5,10.5-27.6,0-38.1l-80.8-80.8
		c-10.5-10.5-27.6-10.5-38.1,0L7.9,129.2c-10.5,10.5-10.5,27.6,0,38.1C18.4,177.8,35.5,177.8,46,167.3L46,167.3z"/>
	<path d="M7.9,382.8l80.8,80.8c5,5,12,7.9,19.1,7.9s14-2.9,19.1-7.9l80.8-80.8c10.5-10.5,10.5-27.6,0-38.1
		c-10.5-10.5-27.6-10.5-38.1,0l-61.8,61.8L46,344.7c-10.5-10.5-27.6-10.5-38.1,0C-2.6,355.3-2.6,372.3,7.9,382.8L7.9,382.8z"/>
	<path d="M80.8,67.4v377.3c0,14.9,12.1,26.9,26.9,26.9s26.9-12.1,26.9-26.9V67.4c0-14.9-12.1-26.9-26.9-26.9S80.8,52.5,80.8,67.4"/>
	<path d="M296.4,121.3h188.6c14.9,0,26.9-12.1,26.9-26.9c0-14.9-12.1-26.9-26.9-26.9H296.4c-14.9,0-26.9,12.1-26.9,26.9
		C269.5,109.2,281.5,121.3,296.4,121.3"/>
	<path d="M296.4,282.9h188.6c14.9,0,26.9-12.1,26.9-26.9c0-14.9-12.1-26.9-26.9-26.9H296.4c-14.9,0-26.9,12.1-26.9,26.9
		C269.5,270.9,281.5,282.9,296.4,282.9"/>
	<path d="M296.4,444.6h188.6c14.9,0,26.9-12.1,26.9-26.9c0-14.9-12.1-26.9-26.9-26.9H296.4c-14.9,0-26.9,12.1-26.9,26.9
		C269.5,432.6,281.5,444.6,296.4,444.6"/>
</g>
</svg>
